# xmcd
#
# Track frame offsets: 
#        183
#        19908
#        33258
#        47183
#        60558
#        79708
#        93483
#        106033
#        121083
#        135333
#        150958
#        158258
#        179808
#        198108
#        211533
#        226458
#
# Disc length: 3177 seconds
#
# Revision: 0
# Processed by: cddbd v1.5.1PL0 Copyright (c) Steve Scherf et al.
# Submitted via: ExactAudioCopy v0.95a5
#
DISCID=b60c6710
DTITLE=Louis Armstrong - Greatest Hitts
DYEAR=2004
DGENRE=Blues
TTITLE0=Lono Long Journey
TTITLE1=Whatta Ya Gonna Do?
TTITLE2=I Want A Little Girl
TTITLE3=All Of Me
TTITLE4=Snafu
TTITLE5=St Louis Blues
TTITLE6=I Ain't Got Nobody
TTITLE7=Georgia On My Mind
TTITLE8=When The Bluss Were Born In New Orleans
TTITLE9=Sugar
TTITLE10=When The Saint Go Marching
TTITLE11=St James Infarmary
TTITLE12=Ain't Misbehavin'
TTITLE13=Mahogany Hall Stomp
TTITLE14=Back O0 Town Blues
TTITLE15=Blues In The South
EXTD=
EXTT0=
EXTT1=
EXTT2=
EXTT3=
EXTT4=
EXTT5=
EXTT6=
EXTT7=
EXTT8=
EXTT9=
EXTT10=
EXTT11=
EXTT12=
EXTT13=
EXTT14=
EXTT15=
PLAYORDER=
